<svg width="172" height="18" viewBox="0 0 172 18" fill="none" xmlns="http://www.w3.org/2000/svg">
<path d="M2.112 17.064V15.024H0V6.656H2.112V4.592H9.408V6.656H11.544V9.896H8.472V7.856H3.048V13.8H8.472V11.736H11.544V15.024H9.408V17.064H2.112Z" fill="black"/>
<path d="M26.5329 10.992C26.5329 11.984 26.3649 12.864 26.0289 13.632C25.6929 14.384 25.2369 15.024 24.6609 15.552C24.0849 16.064 23.4209 16.456 22.6689 16.728C21.9329 17 21.1569 17.136 20.3409 17.136C19.5249 17.136 18.7409 17 17.9889 16.728C17.2529 16.456 16.5969 16.064 16.0209 15.552C15.4449 15.024 14.9889 14.384 14.6529 13.632C14.3169 12.864 14.1489 11.984 14.1489 10.992V10.704C14.1489 9.728 14.3169 8.864 14.6529 8.112C14.9889 7.344 15.4449 6.696 16.0209 6.168C16.5969 5.64 17.2529 5.24 17.9889 4.968C18.7409 4.696 19.5249 4.56 20.3409 4.56C21.1569 4.56 21.9329 4.696 22.6689 4.968C23.4209 5.24 24.0849 5.64 24.6609 6.168C25.2369 6.696 25.6929 7.344 26.0289 8.112C26.3649 8.864 26.5329 9.728 26.5329 10.704V10.992ZM20.3409 14.256C20.7729 14.256 21.1809 14.184 21.5649 14.04C21.9489 13.896 22.2849 13.688 22.5729 13.416C22.8609 13.144 23.0849 12.816 23.2449 12.432C23.4209 12.032 23.5089 11.584 23.5089 11.088V10.608C23.5089 10.112 23.4209 9.672 23.2449 9.288C23.0849 8.888 22.8609 8.552 22.5729 8.28C22.2849 8.008 21.9489 7.8 21.5649 7.656C21.1809 7.512 20.7729 7.44 20.3409 7.44C19.9089 7.44 19.5009 7.512 19.1169 7.656C18.7329 7.8 18.3969 8.008 18.1089 8.28C17.8209 8.552 17.5889 8.888 17.4129 9.288C17.2529 9.672 17.1729 10.112 17.1729 10.608V11.088C17.1729 11.584 17.2529 12.032 17.4129 12.432C17.5889 12.816 17.8209 13.144 18.1089 13.416C18.3969 13.688 18.7329 13.896 19.1169 14.04C19.5009 14.184 19.9089 14.256 20.3409 14.256Z" fill="black"/>
<path d="M38.1082 15.072H37.6763C37.5483 15.344 37.3883 15.608 37.1963 15.864C37.0203 16.104 36.7802 16.32 36.4762 16.512C36.1882 16.704 35.8362 16.856 35.4202 16.968C35.0202 17.08 34.5322 17.136 33.9562 17.136C33.2202 17.136 32.5322 17.008 31.8923 16.752C31.2682 16.48 30.7162 16.088 30.2362 15.576C29.7722 15.048 29.4042 14.408 29.1322 13.656C28.8762 12.904 28.7482 12.04 28.7482 11.064V10.632C28.7482 9.672 28.8842 8.816 29.1562 8.064C29.4442 7.312 29.8283 6.68 30.3083 6.168C30.8043 5.64 31.3722 5.24 32.0122 4.968C32.6682 4.696 33.3562 4.56 34.0762 4.56C35.0362 4.56 35.7963 4.744 36.3563 5.112C36.9163 5.464 37.3563 5.968 37.6763 6.624H38.1082V0H41.1323V8.4V16.8H38.1082V15.072ZM34.9403 14.256C35.8843 14.256 36.6442 13.96 37.2202 13.368C37.8122 12.76 38.1082 11.968 38.1082 10.992V10.704C38.1082 9.728 37.8122 8.944 37.2202 8.352C36.6442 7.744 35.8843 7.44 34.9403 7.44C33.9963 7.44 33.2282 7.736 32.6362 8.328C32.0602 8.904 31.7722 9.696 31.7722 10.704V10.992C31.7722 12 32.0602 12.8 32.6362 13.392C33.2282 13.968 33.9963 14.256 34.9403 14.256Z" fill="black"/>
<path d="M46.9236 11.832C46.9396 12.184 47.0196 12.512 47.1636 12.816C47.3236 13.104 47.5316 13.36 47.7876 13.584C48.0596 13.792 48.3636 13.96 48.6996 14.088C49.0516 14.2 49.4196 14.256 49.8036 14.256C50.5556 14.256 51.1316 14.128 51.5316 13.872C51.9316 13.6 52.2196 13.28 52.3956 12.912L54.9876 14.352C54.8436 14.656 54.6436 14.976 54.3876 15.312C54.1316 15.632 53.7956 15.928 53.3796 16.2C52.9796 16.472 52.4836 16.696 51.8916 16.872C51.3156 17.048 50.6356 17.136 49.8516 17.136C48.9556 17.136 48.1396 16.992 47.4036 16.704C46.6676 16.416 46.0276 16 45.4836 15.456C44.9556 14.912 44.5396 14.248 44.2356 13.464C43.9476 12.68 43.8036 11.792 43.8036 10.8V10.656C43.8036 9.744 43.9556 8.912 44.2596 8.16C44.5796 7.408 45.0116 6.768 45.5556 6.24C46.0996 5.712 46.7316 5.304 47.4516 5.016C48.1876 4.712 48.9716 4.56 49.8036 4.56C50.8276 4.56 51.7076 4.744 52.4436 5.112C53.1796 5.464 53.7876 5.92 54.2676 6.48C54.7476 7.024 55.0996 7.632 55.3236 8.304C55.5476 8.96 55.6596 9.6 55.6596 10.224V11.832H46.9236ZM49.7796 7.296C49.0116 7.296 48.3876 7.496 47.9076 7.896C47.4276 8.28 47.1156 8.728 46.9716 9.24H52.5876C52.4916 8.68 52.1876 8.216 51.6756 7.848C51.1796 7.48 50.5476 7.296 49.7796 7.296Z" fill="black"/>
<path d="M57.8829 13.92H62.0589V2.88H58.0269V0H65.0829V13.92H68.9709V16.8H57.8829V13.92Z" fill="black"/>
<path d="M80.3542 15.072C80.0342 15.824 79.5862 16.36 79.0102 16.68C78.4342 16.984 77.7622 17.136 76.9942 17.136C76.2742 17.136 75.5942 17 74.9542 16.728C74.3302 16.456 73.7782 16.056 73.2982 15.528C72.8182 15 72.4342 14.36 72.1462 13.608C71.8742 12.856 71.7382 12 71.7382 11.04V10.656C71.7382 9.712 71.8742 8.864 72.1462 8.112C72.4182 7.36 72.7862 6.72 73.2502 6.192C73.7142 5.664 74.2502 5.264 74.8582 4.992C75.4822 4.704 76.1462 4.56 76.8502 4.56C77.6982 4.56 78.3782 4.704 78.8902 4.992C79.4182 5.28 79.8342 5.728 80.1382 6.336H80.5702V4.896H83.5942V13.2C83.5942 13.68 83.8102 13.92 84.2422 13.92H84.6982V16.8H82.6342C82.0902 16.8 81.6422 16.64 81.2902 16.32C80.9542 16 80.7862 15.584 80.7862 15.072H80.3542ZM77.6662 14.256C78.5462 14.256 79.2502 13.968 79.7782 13.392C80.3062 12.8 80.5702 12 80.5702 10.992V10.704C80.5702 9.696 80.3062 8.904 79.7782 8.328C79.2502 7.736 78.5462 7.44 77.6662 7.44C76.7862 7.44 76.0822 7.736 75.5542 8.328C75.0262 8.904 74.7622 9.696 74.7622 10.704V10.992C74.7622 12 75.0262 12.8 75.5542 13.392C76.0822 13.968 76.7862 14.256 77.6662 14.256Z" fill="black"/>
<path d="M89.8655 16.8H86.8415V0H89.8655V6.624H90.2975C90.6175 5.968 91.0815 5.464 91.6895 5.112C92.2975 4.744 93.0735 4.56 94.0175 4.56C94.7215 4.56 95.3855 4.696 96.0095 4.968C96.6495 5.24 97.2015 5.64 97.6655 6.168C98.1455 6.68 98.5215 7.312 98.7935 8.064C99.0815 8.816 99.2255 9.672 99.2255 10.632V11.064C99.2255 12.04 99.0895 12.904 98.8175 13.656C98.5455 14.408 98.1775 15.048 97.7135 15.576C97.2495 16.088 96.6975 16.48 96.0575 16.752C95.4335 17.008 94.7535 17.136 94.0175 17.136C93.4735 17.136 93.0015 17.08 92.6015 16.968C92.2015 16.856 91.8495 16.704 91.5455 16.512C91.2575 16.32 91.0095 16.104 90.8015 15.864C90.6095 15.608 90.4415 15.344 90.2975 15.072H89.8655V16.8ZM93.0335 14.256C93.9775 14.256 94.7375 13.968 95.3135 13.392C95.9055 12.8 96.2015 12 96.2015 10.992V10.704C96.2015 9.696 95.9055 8.904 95.3135 8.328C94.7375 7.736 93.9775 7.44 93.0335 7.44C92.0895 7.44 91.3215 7.744 90.7295 8.352C90.1535 8.944 89.8655 9.728 89.8655 10.704V10.992C89.8655 11.968 90.1535 12.76 90.7295 13.368C91.3215 13.96 92.0895 14.256 93.0335 14.256Z" fill="black"/>
<path d="M105.113 16.8H102.089V0H105.113V6.816H105.545C105.849 6.096 106.297 5.544 106.889 5.16C107.481 4.76 108.209 4.56 109.073 4.56C109.665 4.56 110.209 4.656 110.705 4.848C111.201 5.04 111.633 5.328 112.001 5.712C112.369 6.096 112.657 6.592 112.865 7.2C113.073 7.792 113.177 8.496 113.177 9.312V16.8H110.153V10.032C110.153 9.184 109.945 8.52 109.529 8.04C109.129 7.544 108.545 7.296 107.777 7.296C106.881 7.296 106.209 7.6 105.761 8.208C105.329 8.8 105.113 9.6 105.113 10.608V16.8Z" fill="black"/>
<path d="M124.44 15.072C124.12 15.824 123.672 16.36 123.096 16.68C122.52 16.984 121.848 17.136 121.08 17.136C120.36 17.136 119.68 17 119.04 16.728C118.416 16.456 117.864 16.056 117.384 15.528C116.904 15 116.52 14.36 116.232 13.608C115.96 12.856 115.824 12 115.824 11.04V10.656C115.824 9.712 115.96 8.864 116.232 8.112C116.504 7.36 116.872 6.72 117.336 6.192C117.8 5.664 118.336 5.264 118.944 4.992C119.568 4.704 120.232 4.56 120.936 4.56C121.784 4.56 122.464 4.704 122.976 4.992C123.504 5.28 123.92 5.728 124.224 6.336H124.656V4.896H127.68V13.2C127.68 13.68 127.896 13.92 128.328 13.92H128.784V16.8H126.72C126.176 16.8 125.728 16.64 125.376 16.32C125.04 16 124.872 15.584 124.872 15.072H124.44ZM121.752 14.256C122.632 14.256 123.336 13.968 123.864 13.392C124.392 12.8 124.656 12 124.656 10.992V10.704C124.656 9.696 124.392 8.904 123.864 8.328C123.336 7.736 122.632 7.44 121.752 7.44C120.872 7.44 120.168 7.736 119.64 8.328C119.112 8.904 118.848 9.696 118.848 10.704V10.992C118.848 12 119.112 12.8 119.64 13.392C120.168 13.968 120.872 14.256 121.752 14.256Z" fill="black"/>
<path d="M130.591 4.896H133.855L136.663 15.36H137.095L139.903 4.896H143.167L139.759 16.8H133.999L130.591 4.896Z" fill="black"/>
<path d="M148.791 11.832C148.807 12.184 148.887 12.512 149.031 12.816C149.191 13.104 149.399 13.36 149.655 13.584C149.927 13.792 150.231 13.96 150.567 14.088C150.919 14.2 151.287 14.256 151.671 14.256C152.423 14.256 152.999 14.128 153.399 13.872C153.799 13.6 154.087 13.28 154.263 12.912L156.855 14.352C156.711 14.656 156.511 14.976 156.255 15.312C155.999 15.632 155.663 15.928 155.247 16.2C154.847 16.472 154.351 16.696 153.759 16.872C153.183 17.048 152.503 17.136 151.719 17.136C150.823 17.136 150.007 16.992 149.271 16.704C148.535 16.416 147.895 16 147.351 15.456C146.823 14.912 146.407 14.248 146.103 13.464C145.815 12.68 145.671 11.792 145.671 10.8V10.656C145.671 9.744 145.823 8.912 146.127 8.16C146.447 7.408 146.879 6.768 147.423 6.24C147.967 5.712 148.599 5.304 149.319 5.016C150.055 4.712 150.839 4.56 151.671 4.56C152.695 4.56 153.575 4.744 154.311 5.112C155.047 5.464 155.655 5.92 156.135 6.48C156.615 7.024 156.967 7.632 157.191 8.304C157.415 8.96 157.527 9.6 157.527 10.224V11.832H148.791ZM151.647 7.296C150.879 7.296 150.255 7.496 149.775 7.896C149.295 8.28 148.983 8.728 148.839 9.24H154.455C154.359 8.68 154.055 8.216 153.543 7.848C153.047 7.48 152.415 7.296 151.647 7.296Z" fill="black"/>
<path d="M163.846 16.8H160.822V4.896H163.846V6.672H164.278C164.55 6 164.99 5.48 165.598 5.112C166.206 4.744 166.918 4.56 167.734 4.56C168.31 4.56 168.846 4.656 169.342 4.848C169.854 5.024 170.302 5.304 170.686 5.688C171.07 6.072 171.366 6.56 171.574 7.152C171.798 7.744 171.91 8.448 171.91 9.264V16.8H168.886V10.032C168.886 9.184 168.678 8.52 168.262 8.04C167.862 7.544 167.278 7.296 166.51 7.296C165.614 7.296 164.942 7.6 164.494 8.208C164.062 8.8 163.846 9.6 163.846 10.608V16.8Z" fill="black"/>
</svg>
