<?xml version="1.0" encoding="UTF-8"?>
<svg id="Layer_1" xmlns="http://www.w3.org/2000/svg" version="1.1" viewBox="0 0 120 22">
  <!-- Generator: Adobe Illustrator 29.1.0, SVG Export Plug-In . SVG Version: 2.1.0 Build 142)  -->
  <defs>
    <style>
      .st0 {
        fill: #baf05d;
      }
    </style>
  </defs>
  <path d="M117.2,1.6c-1.6-1.5-4-2.6-6.7.2h0s-8.2,8.7-8.2,8.7c-.5.5-.8,1.3-.9,2l-.4,3.2c0,.9.2,1.7.8,2.2.5.4,1.1.7,1.8.7s.3,0,.5,0l3.2-.6c.7-.1,1.5-.6,1.9-1l6.8-7.2s0,0,0-.1l1.4-1.4c1-1,1.5-2,1.6-3,0-1.3-.5-2.5-1.7-3.7ZM107.7,15.7c-.2.2-.6.4-.8.4l-3.2.5c-.2,0-.4,0-.6-.1-.1-.1-.2-.3-.1-.6l.4-3.2c0-.2.2-.7.4-.9l5.7-6c.8,1.7,2.2,3.1,4,3.8l-5.7,6ZM115.9,7l-1,1.1c-2-.4-3.5-1.8-4-3.8l1-1.1c1.2-1.3,2.2-1.7,3.9-.1.8.8,1.2,1.4,1.1,2.1,0,.5-.4,1.1-1,1.8Z"/>
  <path class="st0" d="M119,21.9H45c-.6,0-1-.4-1-1s.4-1,1-1h74c.6,0,1,.4,1,1s-.4,1-1,1Z"/>
  <g>
    <path d="M3,5.8c0-1.1.8-1.7,1.9-1.6,1.2,0,1.9.7,2,1.7h3.1c-.2-2.5-2.1-4-5-4S0,3.4,0,5.9c0,5.1,7.2,3.2,7.2,6.3s-.8,1.7-2.1,1.7-2-.7-2.1-1.9H0c0,2.6,2.3,4.2,5.2,4.2s4.9-2,4.9-4.2c0-4.9-7.2-3.4-7.2-6.2Z"/>
    <rect x="12.6" y="4.9" width="2.8" height="11.1"/>
    <path d="M14,.3c-1,0-1.7.7-1.7,1.6s.7,1.6,1.7,1.6,1.7-.7,1.7-1.6-.7-1.6-1.7-1.6Z"/>
    <path d="M26.1,6.5c-.7-1-1.9-1.8-3.7-1.8-2.8,0-5.1,2.2-5.1,5.7s2.2,5.8,5.1,5.8,3-.9,3.7-1.8v1.7c0,2.1-1.2,2.9-2.7,2.9s-2.4-.7-2.7-1.7h-2.8c.3,2.5,2.5,4.1,5.6,4.1s5.5-2.4,5.5-5.4V4.9h-2.8v1.6ZM23.2,13.7c-1.5,0-2.9-1.2-2.9-3.3s1.4-3.2,2.9-3.2,2.9,1.2,2.9,3.3-1.4,3.3-2.9,3.3Z"/>
    <path d="M37.8,4.8c-1.4,0-2.6.6-3.3,1.5v-1.4h-2.8v11.1h2.8v-6.1c0-1.8,1-2.7,2.5-2.7s2.5,1,2.5,2.7v6.1h2.8v-6.5c0-3.1-1.8-4.7-4.4-4.7Z"/>
    <polygon points="44.9 16 53 16 53 13.7 47.7 13.7 47.7 10 52.4 10 52.4 7.8 47.7 7.8 47.7 4.3 53 4.3 53 2 44.9 2 44.9 16"/>
    <path d="M63.6,6.5c-.7-.9-1.9-1.8-3.7-1.8-2.8,0-5.1,2.2-5.1,5.7s2.2,5.8,5,5.8,3-.8,3.7-1.8v1.6h2.8V4.9h-2.8v1.6ZM60.6,13.7c-1.5,0-2.9-1.2-2.9-3.3s1.4-3.2,2.9-3.2,2.9,1.2,2.9,3.3-1.4,3.3-2.9,3.3Z"/>
    <path d="M71.5,8c0-.6.5-1.1,1.6-1.1s1.8.6,1.9,1.4h2.7c-.2-2.2-1.8-3.7-4.5-3.7s-4.4,1.5-4.4,3.3c0,4.1,6.3,2.8,6.3,4.8s-.6,1.1-1.7,1.1-1.9-.6-2-1.5h-2.8c.1,2.1,2.1,3.7,4.8,3.7s4.4-1.4,4.4-3.3c0-4.1-6.2-2.8-6.2-4.8Z"/>
    <polygon points="87.6 4.9 84.7 12.7 81.9 4.9 78.7 4.9 83.2 15.7 80.8 21.2 83.7 21.2 90.6 4.9 87.6 4.9"/>
  </g>
</svg>